{"title":"The Suffering 2016 Movies HDRip XviD Esubs AAC New +Sample ☻rDX☻","uid":15487792,"size":738335680,"categoryP":"video","categoryS":"movies","magnet":"?xt=urn:btih:ff2023a32ab1e9d470bd6544164fc1056bf15782&amp;dn=The+Suffering+2016+Movies+HDRip+XviD+Esubs+AAC+New+%2BSample+%E2%98%BBrDX%E2%98%BB&amp;tr=udp%3A%2F%2Ftracker.leechers-paradise.org%3A6969&amp;tr=udp%3A%2F%2Fzer0day.ch%3A1337&amp;tr=udp%3A%2F%2Fopen.demonii.com%3A1337&amp;tr=udp%3A%2F%2Ftracker.coppersurfer.tk%3A6969&amp;tr=udp%3A%2F%2Fexodus.desync.com%3A6969","seeders":2,"leechers":0,"uploader":"basicssom","files":3,"time":1470340483,"description":"----------------------------------------------------------------\r\nThe Suffering 2016 English Movies HDRip XviD Esubs AAC New Source with Sample ☻rDX☻\r\n\r\nSCREEN SHOTS &amp; POSTER:\r\n  \nhttp://postimage.co.nr/2016/8/online/index.htm  \nhttp://postimage.co.nr/2016/8/online/1.html  \nhttp://postimage.co.nr/2016/8/online/2.html  \nhttp://postimage.co.nr/2016/8/online/3.html  \nhttp://postimage.co.nr/2016/8/online/4.html  \nhttp://postimage.co.nr/2016/8/online/5.html  \nhttp://postimage.co.nr/2016/8/online/6.html  \nhttp://postimage.co.nr/2016/8/online/7.html  \nhttp://postimage.co.nr/2016/8/online/8.html  \nhttp://postimage.co.nr/2016/8/online/9.html  \nhttp://postimage.co.nr/2016/8/online/10.html\r\n\r\nFormat                                   : Matroska\r\nFormat version                           : Version 4 / Version 2\r\nFile size                                : 693 MiB\r\nDuration                                 : 1 h 45 min\r\nOverall bit rate                         : 918 kb/s\r\nMovie name                               : The Suffering 2016 English Movies HDRip XviD Esubs AAC New Source ☻rDX☻\r\n\r\nVideo\r\nID                                       : 1\r\nFormat                                   : MPEG-4 Visual\r\nFormat profile                           : Advanced   \r\nFormat settings, BVOP                    : 2\r\nFormat settings, QPel                    : No\r\nFormat settings, GMC                     : No warppoints\r\nFormat settings, Matrix                  : Default (H.263)\r\nMuxing mode                              : Packed bitstream\r\nCodec ID                                 : V_MS/VFW/FOURCC / XVID\r\nCodec ID/Hint                            : XviD\r\nDuration                                 : 1 h 45 min\r\nBit rate                                 : 788 kb/s\r\nWidth                                    : 640 pixels\r\nHeight                                   : 272 pixels\r\nDisplay aspect ratio                     : 2.35:1\r\nFrame rate mode                          : Constant\r\nFrame rate                               : 23.976 (24000/1001) FPS\r\nColor space                              : YUV\r\nChroma subsampling                       : 4:2:0\r\nBit depth                                : 8 bits\r\nScan type                                : Progressive\r\nCompression mode                         : Lossy\r\nBits/(Pixel*Frame)                       : 0.189\r\nStream size                              : 595 MiB (86%)\r\nTitle                                    : ☻rDX☻\r\nWriting library                          : XviD 64\r\nDefault                                  : Yes\r\nForced                                   : No\r\n\r\nAudio\r\nID                                       : 2\r\nFormat                                   : MPEG Audio\r\nFormat version                           : Version 1\r\nFormat profile                           : Layer 3\r\nMode                                     : Joint stereo\r\nMode extension                           : MS Stereo\r\nCodec ID                                 : A_MPEG/L3\r\nCodec ID/Hint                            : MP3\r\nDuration                                 : 1 h 45 min\r\nBit rate mode                            : Constant\r\nBit rate                                 : 112 kb/s\r\nChannel(s)                               : 2 channels\r\nSampling rate                            : 48.0 kHz\r\nCompression mode                         : Lossy\r\nStream size                              : 84.5 MiB (12%)\r\nTitle                                    : ☻rDX☻\r\nWriting library                          : LAME3.99r\r\nEncoding settings                        : -m j -V 4 -q 3 -lowpass 15.6 -b 112\r\nDefault                                  : Yes\r\nForced                                   : No\r\n\r\nIMDB \nhttp://www.imdb.com/title/tt3220100/","torrent":{"xt":"urn:btih:ff2023a32ab1e9d470bd6544164fc1056bf15782","amp;dn":"The+Suffering+2016+Movies+HDRip+XviD+Esubs+AAC+New+%2BSample+%E2%98%BBrDX%E2%98%BB","amp;tr":["udp%3A%2F%2Ftracker.leechers-paradise.org%3A6969","udp%3A%2F%2Fzer0day.ch%3A1337","udp%3A%2F%2Fopen.demonii.com%3A1337","udp%3A%2F%2Ftracker.coppersurfer.tk%3A6969","udp%3A%2F%2Fexodus.desync.com%3A6969"],"infoHash":"ff2023a32ab1e9d470bd6544164fc1056bf15782","infoHashBuffer":{"type":"Buffer","data":[255,32,35,163,42,177,233,212,112,189,101,68,22,79,193,5,107,241,87,130]},"announce":[],"urlList":[]}}